<svg xmlns="http://www.w3.org/2000/svg" viewBox="0 0 350.52 489.43"><defs><style>.cls-1{fill:#212121;}.cls-1,.cls-2{stroke:#212121;stroke-miterlimit:10;}.cls-2{fill:none;stroke-width:9px;}</style></defs><g id="Слой_2" data-name="Слой 2"><path class="cls-1" d="M225.39,353.83c3.49,4.19-13.87,19.09-12.48,34.39.72,7.93,4.57,9.14,7.54,23.42,1.92,9.21,2.82,13.82,1.77,18.14-2.73,11.33-14.51,14.64-44.55,37.43-4.16,3.15-10.44,8.06-11.35,15.46-.88,7.13,3.71,12.38,2.84,12.89-1.23.73-10-10.06-14.37-23.44a19.2,19.2,0,0,1-1.29-7.1c.1-2.77,1-7.34,8.73-16,8-8.93,10.77-8.25,13.72-13.62,4.19-7.63,2.44-16.07,2.16-17.34-2.38-10.74-10.39-11.72-25.12-31.1a55.2,55.2,0,0,1-8.1-14l-.18-.49c-2.77-7.31-4.34-17.35-1.33-19,.39-.21.57-.12,5.51,1s4.77,1,5,1.14c4,2,.42,10.25,3.09,18.41,2.31,7.07,6,6.35,16.49,19.77,3.78,4.85,6.67,8.56,9.41,14.23,3.51,7.27,7.47,15.5,4.64,24.2-1.26,3.87-4.5,6.84-10.82,12.84-6.62,6.27-10.93,8.4-14,14.93-1.3,2.77-2.74,7.14-1.61,7.88,1.48,1,6-5.12,16.61-14.4,8.18-7.14,8.74-6.36,13.18-11,5.06-5.27,10.47-10.92,12.16-19.41,1.65-8.29-1.07-15.23-2.82-19.72-4.33-11.07-9.18-11.19-13.33-21.86-1.12-2.89-6.43-16.46-1-22.08,3.51-3.62,8-.41,21.1-2.23C218.91,355.6,223.67,351.78,225.39,353.83Z" transform="translate(-83.5 -6.67)"/><path class="cls-1" d="M238.53,158.24s5,2.83,16.44-14.11,23.52-16.42,27.59-17.59,11.94,3.2,18.92-3.21-.59-17.46,4.94-21.24,16.3-4.66,24.28-3-8.21,3.67-8.56,11.71.24,25.49-1.21,28.11-4.6,13.22-15.49,16.77-17.72,3-21.6,17S273,191.86,273,191.86l-4.39-3.75s6.42-6.75,8.54-12.1-2.65-19,7-25.25,17.39-2.44,20.28-5.41,9.93-10.72,8.82-16.14-6.93,5.07-12.34,6.18-14.49-.63-22.18,3.73-10.65,10.94-12.22,16.24-3.32,14.61-7.45,17.11S252,164.27,238.53,158.24Z" transform="translate(-83.5 -6.67)"/><path class="cls-1" d="M279.16,307.47s-2.79,5,14.24,16.33,16.6,23.39,17.79,27.46-3.11,12,3.35,18.89,17.46-.72,21.29,4.79,4.78,16.26,3.15,24.25-3.73-8.18-11.76-8.47-25.5.43-28.13-1-13.25-4.5-16.88-15.36-3.1-17.7-17.19-21.48-19.21-10.66-19.21-10.66l3.71-4.42s6.8,6.37,12.16,8.45,18.95-2.79,25.31,6.83,2.56,17.37,5.56,20.23,10.8,9.85,16.2,8.7-5.11-6.88-6.26-12.29.52-14.49-3.9-22.15-11-10.57-16.33-12.1-14.64-3.2-17.18-7.32S273.24,320.94,279.16,307.47Z" transform="translate(-83.5 -6.67)"/><path class="cls-1" d="M286.35,204.15c3.77-3.94,20.51,11.65,35.56,8.56,7.8-1.61,8.58-5.57,22.43-10.11,8.94-2.94,13.43-4.35,17.83-3.79,11.56,1.45,16.17,12.78,42.17,40.09,3.6,3.78,9.18,9.47,16.64,9.56,7.18.08,11.88-5.08,12.49-4.27.86,1.14-8.88,11.08-21.69,16.9a19.14,19.14,0,0,1-6.91,2.07c-2.76.21-7.4-.16-16.88-6.88-9.76-6.93-9.4-9.78-15.06-12.11-8.06-3.32-16.25-.64-17.48-.22-10.41,3.57-10.48,11.64-28.1,28.44a54.64,54.64,0,0,1-13,9.61l-.46.24c-7,3.57-16.76,6.25-18.7,3.43-.25-.36-.18-.55.37-5.58s.49-4.86.58-5.1c1.55-4.17,10.14-1.56,17.95-5.12,6.76-3.09,5.64-6.69,17.81-18.6,4.39-4.3,7.76-7.59,13.08-10.94,6.84-4.3,14.57-9.16,23.53-7.32,4,.82,7.3,3.71,14,9.32,7,5.88,9.57,9.93,16.4,12.23,2.9,1,7.4,1.92,8,.71.79-1.57-5.75-5.36-16.16-14.89-8-7.33-7.3-8-12.4-11.87-5.8-4.44-12-9.19-20.64-9.92-8.42-.71-15,2.76-19.29,5-10.51,5.53-10.1,10.37-20.23,15.68-2.75,1.44-15.64,8.24-21.84,3.44-4-3.09-1.29-7.92-4.57-20.72C288.82,210.39,284.5,206.08,286.35,204.15Z" transform="translate(-83.5 -6.67)"/><path class="cls-1" d="M140.5,147.54c-3.39-4.26,14.32-18.74,13.29-34.08-.53-7.94-4.34-9.25-7-23.59-1.7-9.25-2.49-13.89-1.34-18.18,3-11.25,14.86-14.28,45.43-36.35,4.24-3.05,10.63-7.8,11.73-15.19,1.05-7.09-3.42-12.46-2.54-12.95,1.25-.7,9.78,10.3,13.81,23.78A19.51,19.51,0,0,1,215,38.11c-.17,2.76-1.17,7.31-9.12,15.79-8.18,8.73-10.95,8-14,13.28-4.38,7.53-2.83,16-2.58,17.29,2.12,10.79,10.11,12,24.37,31.69a55,55,0,0,1,7.76,14.15l.17.49c2.6,7.38,3.92,17.45.87,19-.39.2-.57.11-5.48-1.13s-4.75-1.14-5-1.26c-3.93-2.1-.17-10.26-2.65-18.48-2.14-7.12-5.86-6.49-16-20.16-3.66-4.94-6.47-8.72-9.07-14.45C181,87,177.19,78.64,180.23,70c1.35-3.84,4.66-6.73,11.13-12.58,6.76-6.12,11.13-8.13,14.33-14.59,1.36-2.74,2.91-7.07,1.8-7.84-1.46-1-6.1,5-17,14-8.35,6.94-8.89,6.15-13.44,10.67-5.18,5.15-10.73,10.66-12.62,19.11-1.85,8.25.7,15.26,2.34,19.78,4.06,11.17,8.91,11.41,12.8,22.18,1.06,2.91,6,16.6.45,22.1-3.6,3.52-8,.21-21.15,1.72C147,145.93,142.16,149.64,140.5,147.54Z" transform="translate(-83.5 -6.67)"/></g><g id="Слой_8" data-name="Слой 8"><path class="cls-2" d="M135.19,161.87C147.58,158,199.51,147.74,244,181c7.71,5.78,29.94,22.92,37.17,53.58a86.75,86.75,0,0,1-11,65.06c-18.73,29.81-49.51,39.27-59.21,42.09-35.89,10.45-70.29,1.32-92.25-11.48-17-9.92-33.36-26-30.29-30.61,2.68-4,21.32,8,44.06,10.2,24.55,2.43,65.65-3.53,85.37-33.16.8-1.21,19.61-30.52,5.5-60-15.63-32.62-58.58-38.07-70.21-39.54-21.69-2.76-41.1,6.5-42.69,2.55-1.43-3.56,13.14-12.38,13.77-12.76A58.28,58.28,0,0,1,135.19,161.87Z" transform="translate(-83.5 -6.67)"/><path class="cls-2" d="M211.21,164c7.44,2.74,38.09,15,54.88,48.39,4,8,14.27,28.41,9.68,54.84-5.08,29.3-24.93,46.93-33.36,53.39-17.19,13.17-34.82,16.71-43.66,18.39a113.73,113.73,0,0,1-39.56.5c-23.12-3.84-38.74-13.94-46.23-18.89a127.86,127.86,0,0,1-19.52-15.91" transform="translate(-83.5 -6.67)"/></g></svg>