<?xml version="1.0" encoding="utf-8"?>
<!-- Generator: Adobe Illustrator 19.0.0, SVG Export Plug-In . SVG Version: 6.00 Build 0)  -->
<svg version="1.1" id="Capa_1" xmlns="http://www.w3.org/2000/svg" xmlns:xlink="http://www.w3.org/1999/xlink" x="0px" y="0px"
	 viewBox="-268 391.9 58 58" style="enable-background:new -268 391.9 58 58;" xml:space="preserve">
<style type="text/css">
	.st0{fill:#284081;}
	.st1{fill:#FFFFFF;}
</style>
<circle class="st0" cx="-239" cy="420.9" r="29"/>
<g>
	<polygon class="st1" points="-224,420.9 -246,435.9 -246,421.2 -246,405.9 	"/>
	<path class="st1" d="M-246,436.9c-0.2,0-0.3,0-0.5-0.1c-0.3-0.2-0.5-0.5-0.5-0.9v-30c0-0.4,0.2-0.7,0.5-0.9c0.3-0.2,0.7-0.2,1,0.1
		l22,15c0.3,0.2,0.4,0.5,0.4,0.8c0,0.3-0.2,0.6-0.4,0.8l-22,15C-245.6,436.8-245.8,436.9-246,436.9z M-245,407.8V434l19.2-13.1
		L-245,407.8z"/>
</g>
</svg>
