<?xml version="1.0" encoding="utf-8"?>
<!-- Generator: Adobe Illustrator 19.0.0, SVG Export Plug-In . SVG Version: 6.00 Build 0)  -->
<svg version="1.1" id="Layer_1" xmlns="http://www.w3.org/2000/svg" xmlns:xlink="http://www.w3.org/1999/xlink" x="0px" y="0px"
	 viewBox="-41 164.9 512 512" style="enable-background:new -41 164.9 512 512;" xml:space="preserve">
<style type="text/css">
	.st0{fill:#033488;}
</style>
<g>
	<g>
		<path class="st0" d="M385.2,400.9L157.4,173.1c-5.3-5.3-12.3-8.2-19.8-8.2s-14.5,2.9-19.8,8.2L101,189.8
			c-10.9,10.9-10.9,28.7,0,39.6l191.3,191.3L100.8,612.3c-5.3,5.3-8.2,12.3-8.2,19.8s2.9,14.5,8.2,19.8l16.8,16.8
			c5.3,5.3,12.3,8.2,19.8,8.2s14.5-2.9,19.8-8.2l228.1-228.1c5.3-5.3,8.2-12.4,8.2-19.9C393.4,413.3,390.5,406.2,385.2,400.9z"/>
	</g>
</g>
</svg>
