<svg xmlns="http://www.w3.org/2000/svg" xmlns:xlink="http://www.w3.org/1999/xlink">

<symbol id="krug" viewBox="0 0 29 29">
        <g><path class="st0" d="M14.5,29C6.5,29,0,22.5,0,14.5C0,6.5,6.5,0,14.5,0C22.5,0,29,6.5,29,14.5C29,22.5,22.5,29,14.5,29z M14.5,1
        C7,1,1,7,1,14.5C1,21.9,7,28,14.5,28C21.9,28,28,21.9,28,14.5C28,7,21.9,1,14.5,1z"/></g>
</symbol>
<symbol id="kvadrat" viewBox="0 0 100 100">
        <g><path class="st0" d="M93.2,99.2H6.5c-3.1,0-5.7-2.5-5.7-5.7V6.8c0-3.1,2.5-5.7,5.7-5.7h86.8c3.1,0,5.7,2.5,5.7,5.7
		v86.8C98.9,96.7,96.4,99.2,93.2,99.2z M6.5,4.5c-1.3,0-2.3,1-2.3,2.3v86.8c0,1.3,1,2.3,2.3,2.3h86.8c1.3,0,2.3-1,2.3-2.3V6.8c0-1.3-1-2.3-2.3-2.3H6.5z"/></g>
</symbol>
<symbol id="ugolok" viewBox="0 0 100 100">
        <g><path class="st0" d="M94.2,100H5.7c-3.2,0-5.7-2.6-5.7-5.7V5.7C-0.1,2.5,2.5,0,5.7,0H18v81.9H100v12.4C100,97.4,97.4,100,94.2,100
			z M5.7,3.4c-1.3,0-2.3,1-2.3,2.3v88.6c0,1.3,1,2.3,2.3,2.3h88.6c1.3,0,2.3-1,2.3-2.3v-8.9H17.1c-1.4,0-2.6-1.1-2.6-2.6V3.4H5.7z"/></g>
</symbol>
<symbol id="veter" viewBox="0 0 24 24" fill="none" xmlns="http://www.w3.org/2000/svg" stroke="#000000"><g id="SVGRepo_bgCarrier" stroke-width="0"></g><g id="SVGRepo_tracerCarrier" stroke-linecap="round" stroke-linejoin="round" stroke="#CCCCCC" stroke-width="0.144"></g><g id="SVGRepo_iconCarrier"> <path d="M7 12H17M8 8.5C8 8.5 9 9 10 9C11.5 9 12.5 8 14 8C15 8 16 8.5 16 8.5M8 15.5C8 15.5 9 16 10 16C11.5 16 12.5 15 14 15C15 15 16 15.5 16 15.5M21 12C21 16.9706 16.9706 21 12 21C7.02944 21 3 16.9706 3 12C3 7.02944 7.02944 3 12 3C16.9706 3 21 7.02944 21 12Z" stroke="#000000" stroke-width="2" stroke-linecap="round" stroke-linejoin="round"></path> </g>
</symbol>

</svg>