<?xml version="1.0" encoding="utf-8"?>
<!-- Generator: Adobe Illustrator 24.3.0, SVG Export Plug-In . SVG Version: 6.00 Build 0)  -->
<svg version="1.1" id="Слой_1" xmlns="http://www.w3.org/2000/svg" xmlns:xlink="http://www.w3.org/1999/xlink" x="0px" y="0px"
	 viewBox="0 0 512 100" style="enable-background:new 0 0 512 100;" xml:space="preserve">
<style type="text/css">
	.st0{fill:#A99676;}
	.st1{fill:#EDEDF2;}
</style>
<polygon class="st0" points="72.5,38.6 61,1.5 49.6,38.6 12.4,38.6 42.5,61.5 31,98.6 61,75.6 91.1,98.6 79.6,61.5 109.7,38.6 "/>
<polygon class="st0" points="170.1,38.6 158.6,1.5 147.1,38.6 110,38.6 140,61.5 128.5,98.6 158.6,75.6 188.7,98.6 177.2,61.5 
	207.3,38.6 "/>
<polygon class="st1" points="267.7,38.6 256.2,1.5 244.7,38.6 207.5,38.6 237.6,61.5 226.1,98.6 256.2,75.6 286.3,98.6 274.8,61.5 
	304.8,38.6 "/>
<polygon class="st1" points="365.3,38.6 353.8,1.5 342.3,38.6 305.1,38.6 335.2,61.5 323.7,98.6 353.8,75.6 383.8,98.6 372.4,61.5 
	402.4,38.6 "/>
<polygon class="st1" points="451.3,1.5 439.9,38.6 402.7,38.6 432.8,61.5 421.3,98.6 451.3,75.6 481.4,98.6 469.9,61.5 500,38.6 
	462.8,38.6 "/>
</svg>
